<svg viewBox="0 0 1208 1208" xmlns="http://www.w3.org/2000/svg">
  <path d="M120 0h968a120,120 0 0 1 120,120v968a120,120 0 0 1 -120,120h-968a120,120 0 0 1 -120,-120v-968a120,120 0 0 1 120,-120z" fill="#209CEE"/>
  <g fill="white" transform="scale(.8) translate(150 150)">
    <path d="M545 230.004q36-22 46-22 17 0 17 18 0 11-14 30t-37 38q4 40 4 85t-5 95q-27 304-325 304-93 0-165-54-31-24-48-52t-17-49.5q0-21.5 20-21.5t39.5 12.5q19.5 12.5 41.5 28.5 56 40 112 40 106 0 154-85 40-68 40-196v-6q-74 37-167 37t-154-53.5q-61-53.5-61-149t79.5-160.5q79.5-65 186.5-65 198-1 253 226zm-355.5 78.5q29.5 31.5 92.5 31.5t125-34q-5-90-30-137-34-63-107-63-41 0-75.5 38t-34.5 85.5q0 47.5 29.5 79z" transform="translate(0 220)"/>
    <path d="M408 351q-97 0 -95 49q0 46 93 46q22 0 42 -5q33 33 33 100q0 116 -155 116q-81 0 -154 -35q-27 -13 -48.5 -24t-39.5 -11t-18 11q0 13 20 38.5t56 51.5q92 64 209 65q153 0 225 -61q62 -51 62 -139q0 -102 -100 -156q96 -55 114 -135q6 -28 6 -74t-25 -87t-67 -69   q-84 -54 -215 -54q-93 0 -207 42q-76 28 -112 67q-18 19 -17.5 38t19 19t70.5 -13v1q0 78 18 160q31 143 72 224q44 90 91 90q13 0 13 -45t-8.5 -92t-18 -92.5t-18 -82.5t-8.5 -53l-10 -151q59 -16 100 -16t74 14q83 35 83 122q0 52 -10 86t-36 60q-23 -5 -38 -5z" transform="scale(1 -1) translate(550 -972.25)"/>
  </g>
</svg>